:FULLY-SPECIFIED
:FORCE-ALL-JOINTS-BE-3DOF
:DEGREES
68
root 5.92204 16.7688 -28.0914 11.1731 2.84926 -3.90989
lfemur -36.1333 15.8313 -17.9096
ltibia 53.2687 0 0
lfoot -21.2818 -10.726 0
ltoes 31.1937 0 0
rfemur -17.1854 -0.101343 21.9539
rtibia 30.2038 0 0
rfoot -26.2679 -18.3508 0
rtoes -10.3067 0 0
lowerback -3.61605 2.53168 3.29405
upperback -1.43649 3.26609 -0.160153
thorax 0.7416 1.62779 -1.8656
lowerneck -10.0257 -2.42337 2.25126
upperneck -5.65013 -3.38891 1.99323
head -0.10786 -1.71289 0.148837
lclavicle 1.71453e-15 -1.69095e-14 0
lhumerus -40.4561 -11.5436 93.7604
lradius 43.9689 0 0
lwrist 7.89873 0 0
lhand -13.4454 1.80088 0
lfingers 7.12502 0 0
lthumb 12.6636 31.3933 0
rclavicle 1.71453e-15 -1.69095e-14 0
rhumerus -38.9855 2.4229 -91.9006
rradius 42.1373 0 0
rwrist 8.5569 0 0
rhand -25.1699 -21.6434 0
rfingers 7.12502 0 0
rthumb 1.34742 -51.6189 0
69
root 5.9337 16.7697 -28.0719 11.3257 2.90587 -4.02951
lfemur -36.8834 16.109 -17.7553
ltibia 53.5385 0 0
lfoot -21.1599 -9.91955 0
ltoes 30.2258 0 0
rfemur -17.1988 0.0652288 22.0453
rtibia 30.0748 0 0
rfoot -25.982 -18.5751 0
rtoes -10.9613 0 0
lowerback -3.66115 2.59101 3.27892
upperback -1.48792 3.34463 -0.119103
thorax 0.715116 1.66619 -1.81048
lowerneck -10.0496 -2.45556 2.33027
upperneck -5.70926 -3.43928 1.93633
head -0.124936 -1.74042 0.11782
lclavicle -2.37221e-15 -1.90909e-14 0
lhumerus -40.5204 -11.1081 93.5761
lradius 43.9971 0 0
lwrist 8.00423 0 0
lhand -14.0403 1.67703 0
lfingers 7.12502 0 0
lthumb 12.0901 31.3049 0
rclavicle -2.37221e-15 -1.90909e-14 0
rhumerus -38.7674 2.74291 -91.8374
rradius 42.0793 0 0
rwrist 8.90538 0 0
rhand -25.2185 -21.5331 0
rfingers 7.12502 0 0
rthumb 1.30049 -51.5088 0
70
root 5.94514 16.771 -28.0521 11.5209 2.96449 -4.13868
lfemur -37.6227 16.3302 -17.6163
ltibia 53.6982 0 0
lfoot -21.0719 -9.02336 0
ltoes 29.2313 0 0
rfemur -17.2618 0.250026 22.128
rtibia 29.9543 0 0
rfoot -25.6998 -18.8139 0
rtoes -11.553 0 0
lowerback -3.75807 2.64643 3.24626
upperback -1.55499 3.41695 -0.0817262
thorax 0.700302 1.70152 -1.74765
lowerneck -10.067 -2.48763 2.41415
upperneck -5.76226 -3.49001 1.87842
head -0.141277 -1.7682 0.0857488
lclavicle -6.53197e-15 -1.83931e-14 0
lhumerus -40.5984 -10.6984 93.3983
lradius 44.0231 0 0
lwrist 8.11348 0 0
lhand -14.6023 1.5713 0
lfingers 7.12502 0 0
lthumb 11.5483 31.2317 0
rclavicle -6.53197e-15 -1.83931e-14 0
rhumerus -38.554 3.02007 -91.7703
rradius 42.0168 0 0
rwrist 9.22135 0 0
rhand -25.2621 -21.4374 0
rfingers 7.12502 0 0
rthumb 1.25841 -51.4135 0
71
root 5.95592 16.7725 -28.0329 11.762 3.02456 -4.23384
lfemur -38.3353 16.4833 -17.4987
ltibia 53.7365 0 0
lfoot -21.0139 -8.06127 0
ltoes 28.2401 0 0
rfemur -17.3841 0.448621 22.1998
rtibia 29.8487 0 0
rfoot -25.4326 -19.0615 0
rtoes -12.0519 0 0
lowerback -3.91329 2.69625 3.19595
upperback -1.63846 3.48055 -0.04948
thorax 0.699906 1.73256 -1.67835
lowerneck -10.077 -2.51901 2.50017
upperneck -5.80727 -3.54008 1.82153
head -0.15636 -1.79564 0.0536981
lclavicle -1.10325e-14 -1.41137e-14 0
lhumerus -40.688 -10.3323 93.2334
lradius 44.0463 0 0
lwrist 8.22233 0 0
lhand -15.1037 1.48866 0
lfingers 7.12502 0 0
lthumb 11.0647 31.177 0
rclavicle -1.10325e-14 -1.41137e-14 0
rhumerus -38.3535 3.24127 -91.7011
rradius 41.9544 0 0
rwrist 9.48337 0 0
rhand -25.2967 -21.365 0
rfingers 7.12502 0 0
rthumb 1.22504 -51.3413 0
72
root 5.96918 16.7727 -28.0089 12.1678 3.09715 -4.32749
lfemur -39.1008 16.4437 -17.3602
ltibia 53.4377 0 0
lfoot -20.8885 -6.75034 0
ltoes 27.1071 0 0
rfemur -17.6804 0.667146 22.2636
rtibia 29.764 0 0
rfoot -25.3107 -19.3324 0
rtoes -12.1677 0 0
lowerback -4.25789 2.7583 3.10661
upperback -1.77962 3.55691 -0.0272927
thorax 0.743786 1.77028 -1.58819
lowerneck -10.1023 -2.56681 2.59473
upperneck -5.81602 -3.61402 1.77472
head -0.158001 -1.83446 0.0220382
lclavicle -2.02842e-14 -1.30328e-14 0
lhumerus -40.8165 -10.0704 93.0734
lradius 44.0701 0 0
lwrist 8.32724 0 0
lhand -15.3395 1.44222 0
lfingers 7.12502 0 0
lthumb 10.8373 31.1424 0
rclavicle -2.02842e-14 -1.30328e-14 0
rhumerus -38.1696 3.33625 -91.6059
rradius 41.9533 0 0
rwrist 9.50261 0 0
rhand -25.2847 -21.3955 0
rfingers 7.12502 0 0
rthumb 1.23666 -51.3717 0
73
root 5.98555 16.7719 -27.9804 12.5434 3.17345 -4.43282
lfemur -39.8098 16.3374 -17.1564
ltibia 53.0379 0 0
lfoot -20.7309 -5.30714 0
ltoes 25.9213 0 0
rfemur -17.9135 0.857717 22.3305
rtibia 29.6539 0 0
rfoot -25.265 -19.5879 0
rtoes -12.1737 0 0
lowerback -4.58165 2.83134 3.01943
upperback -1.91667 3.64876 -0.0045167
thorax 0.780774 1.81574 -1.49832
lowerneck -10.1408 -2.62497 2.69242
upperneck -5.81006 -3.70268 1.73185
head -0.153138 -1.88034 -0.00975536
lclavicle -1.96174e-14 -1.04568e-14 0
lhumerus -40.9609 -9.82199 92.9036
lradius 44.0964 0 0
lwrist 8.43117 0 0
lhand -15.4819 1.40321 0
lfingers 7.12502 0 0
lthumb 10.7 31.1105 0
rclavicle -1.96174e-14 -1.04568e-14 0
rhumerus -37.9839 3.41401 -91.4942
rradius 41.9833 0 0
rwrist 9.45693 0 0
rhand -25.2594 -21.4485 0
rfingers 7.12502 0 0
rthumb 1.26105 -51.4245 0
74
root 6.00447 16.7703 -27.9485 12.8651 3.25131 -4.54636
lfemur -40.4277 16.1698 -16.892
ltibia 52.5586 0 0
lfoot -20.5511 -3.79473 0
ltoes 24.7337 0 0
rfemur -18.0621 1.00943 22.399
rtibia 29.5199 0 0
rfoot -25.2906 -19.8159 0
rtoes -12.0866 0 0
lowerback -4.86245 2.91208 2.93932
upperback -2.04176 3.75205 0.0188285
thorax 0.80679 1.86693 -1.41276
lowerneck -10.1893 -2.69109 2.78969
upperneck -5.79111 -3.80243 1.69359
head -0.14266 -1.93144 -0.0407443
lclavicle -1.21481e-14 -7.12957e-15 0
lhumerus -41.116 -9.59253 92.73
lradius 44.1247 0 0
lwrist 8.53092 0 0
lhand -15.5324 1.374 0
lfingers 7.12502 0 0
lthumb 10.6513 31.0838 0
rclavicle -1.21481e-14 -7.12957e-15 0
rhumerus -37.8028 3.47542 -91.3702
rradius 42.0416 0 0
rwrist 9.35569 0 0
rhand -25.2225 -21.518 0
rfingers 7.12502 0 0
rthumb 1.29663 -51.4938 0
75
root 6.02541 16.768 -27.9142 13.1089 3.32855 -4.66464
lfemur -40.9196 15.9464 -16.572
ltibia 52.0215 0 0
lfoot -20.3592 -2.27615 0
ltoes 23.5954 0 0
rfemur -18.1051 1.1114 22.4673
rtibia 29.3634 0 0
rfoot -25.3827 -20.0047 0
rtoes -11.9227 0 0
lowerback -5.07814 2.99726 2.87116
upperback -2.14707 3.86274 0.0427236
thorax 0.817752 1.92181 -1.33553
lowerneck -10.2451 -2.7628 2.883
upperneck -5.76087 -3.90962 1.66062
head -0.127462 -1.98591 -0.0699902
lclavicle -9.9249e-16 -3.79544e-15 0
lhumerus -41.2764 -9.3873 92.5584
lradius 44.1543 0 0
lwrist 8.62326 0 0
lhand -15.4928 1.35694 0
lfingers 7.12502 0 0
lthumb 10.6895 31.0647 0
rclavicle -9.9249e-16 -3.79544e-15 0
rhumerus -37.6329 3.52137 -91.2377
rradius 42.1256 0 0
rwrist 9.20824 0 0
rhand -25.1758 -21.598 0
rfingers 7.12502 0 0
rthumb 1.34177 -51.5735 0
76
root 6.04781 16.765 -27.8784 13.2511 3.40304 -4.78417
lfemur -41.2508 15.6724 -16.2011
ltibia 51.448 0 0
lfoot -20.1652 -0.814428 0
ltoes 22.5575 0 0
rfemur -18.0212 1.15272 22.534
rtibia 29.186 0 0
rfoot -25.5366 -20.1425 0
rtoes -11.6986 0 0
lowerback -5.20661 3.08358 2.81983
upperback -2.22477 3.97681 0.0671491
thorax 0.80958 1.97836 -1.27065
lowerneck -10.3051 -2.83772 2.96883
upperneck -5.72105 -4.0206 1.63364
head -0.108433 -2.04191 -0.0965548
lclavicle 1.07334e-14 -1.1985e-15 0
lhumerus -41.4367 -9.21164 92.395
lradius 44.1848 0 0
lwrist 8.705 0 0
lhand -15.3646 1.35438 0
lfingers 7.12502 0 0
lthumb 10.8131 31.0556 0
rclavicle 1.07334e-14 -1.1985e-15 0
rhumerus -37.4805 3.55271 -91.1009
rradius 42.2324 0 0
rwrist 9.02391 0 0
rhand -25.1208 -21.6823 0
rfingers 7.12502 0 0
rthumb 1.39488 -51.6575 0
77
root 6.07114 16.7613 -27.8422 13.2678 3.47262 -4.90148
lfemur -41.3865 15.3533 -15.7842
ltibia 50.8596 0 0
lfoot -19.9791 0.527382 0
ltoes 21.6712 0 0
rfemur -17.7893 1.12249 22.5973
rtibia 28.989 0 0
rfoot -25.7474 -20.2173 0
rtoes -11.4306 0 0
lowerback -5.22571 3.16778 2.79023
upperback -2.26702 4.0902 0.0920857
thorax 0.778192 2.03456 -1.22214
lowerneck -10.3664 -2.91346 3.04364
upperneck -5.67335 -4.13174 1.61332
head -0.0864671 -2.0976 -0.1195
lclavicle 1.99135e-14 -8.28742e-17 0
lhumerus -41.5918 -9.07085 92.2455
lradius 44.2155 0 0
lwrist 8.77291 0 0
lhand -15.1496 1.36868 0
lfingers 7.12502 0 0
lthumb 11.0205 31.059 0
rclavicle 1.99135e-14 -8.28742e-17 0
rhumerus -37.3523 3.57033 -90.9635
rradius 42.3595 0 0
rwrist 8.81206 0 0
rhand -25.0592 -21.7649 0
rfingers 7.12502 0 0
rthumb 1.45436 -51.7397 0
78
root 6.09485 16.7571 -27.8067 13.1351 3.53513 -5.01309
lfemur -41.2921 14.9944 -15.326
ltibia 50.2778 0 0
lfoot -19.8111 1.68624 0
ltoes 20.9875 0 0
rfemur -17.3881 1.00982 22.6557
rtibia 28.7739 0 0
rfoot -26.0104 -20.2173 0
rtoes -11.1354 0 0
lowerback -5.11333 3.24657 2.78724
upperback -2.266 4.19889 0.117514
thorax 0.719507 2.08838 -1.19404
lowerneck -10.4261 -2.98765 3.10389
upperneck -5.6195 -4.23938 1.60034
head -0.0624547 -2.15114 -0.137887
lclavicle 2.34317e-14 -1.19271e-15 0
lhumerus -41.7361 -8.97027 92.116
lradius 44.246 0 0
lwrist 8.8238 0 0
lhand -14.8493 1.40219 0
lfingers 7.12502 0 0
lthumb 11.3101 31.0772 0
rclavicle 2.34317e-14 -1.19271e-15 0
rhumerus -37.2547 3.57508 -90.8297
rradius 42.504 0 0
rwrist 8.58204 0 0
rhand -24.9927 -21.8398 0
rfingers 7.12502 0 0
rthumb 1.5186 -51.8141 0
79
root 6.12693 16.7501 -27.7635 12.6599 3.61028 -5.16099
lfemur -40.6989 14.3908 -14.6543
ltibia 49.6395 0 0
lfoot -19.6774 2.35222 0
ltoes 20.7927 0 0
rfemur -16.5519 0.480142 22.7204
rtibia 28.4681 0 0
rfoot -26.3685 -19.8402 0
rtoes -10.8624 0 0
lowerback -4.72009 3.32581 2.86266
upperback -2.18332 4.31369 0.170983
thorax 0.591949 2.14475 -1.19645
lowerneck -10.4518 -3.07731 3.13844
upperneck -5.5545 -4.3641 1.58524
head -0.0402637 -2.21275 -0.152997
lclavicle 2.78116e-15 -4.39585e-15 0
lhumerus -41.9071 -8.90029 92.0162
lradius 44.3119 0 0
lwrist 8.87749 0 0
lhand -14.2396 1.54262 0
lfingers 7.12502 0 0
lthumb 11.898 31.1821 0
rclavicle 2.78116e-15 -4.39585e-15 0
rhumerus -37.2419 3.55725 -90.6272
rradius 42.7457 0 0
rwrist 8.33576 0 0
rhand -24.8139 -21.7976 0
rfingers 7.12502 0 0
rthumb 1.69129 -51.7703 0
80
root 6.16379 16.7418 -27.715 12.1628 3.70698 -5.33364
lfemur -40.0703 13.6643 -13.9008
ltibia 48.949 0 0
lfoot -19.5297 2.92337 0
ltoes 20.633 0 0
rfemur -15.6735 -0.210959 22.7871
rtibia 28.1507 0 0
rfoot -26.7611 -19.3124 0
rtoes -10.5303 0 0
lowerback -4.32571 3.41017 2.94894
upperback -2.10569 4.4356 0.239658
thorax 0.458398 2.2045 -1.19004
lowerneck -10.4626 -3.17895 3.17142
upperneck -5.48167 -4.50425 1.56441
head -0.0182919 -2.28203 -0.169878
lclavicle -8.95625e-15 -3.96176e-15 0
lhumerus -42.1066 -8.81132 91.9162
lradius 44.4005 0 0
lwrist 8.95651 0 0
lhand -13.508 1.71731 0
lfingers 7.12502 0 0
lthumb 12.6032 31.3118 0
rclavicle -8.95625e-15 -3.96176e-15 0
rhumerus -37.2537 3.51596 -90.3671
rradius 43.0382 0 0
rwrist 8.08194 0 0
rhand -24.5446 -21.688 0
rfingers 7.12502 0 0
rthumb 1.95134 -51.658 0
